<mxfile host="app.diagrams.net" modified="2023-10-13T21:14:20.006Z" agent="Mozilla/5.0 (Windows NT 10.0; Win64; x64) AppleWebKit/537.36 (KHTML, like Gecko) Chrome/117.0.0.0 Safari/537.36" etag="XdG49aWzwomoNOV5hL1g" version="22.0.0" type="device">
  <diagram name="Page-1" id="2GuQo7bRzSuS0wM51FNN">
    <mxGraphModel dx="2060" dy="2139" grid="1" gridSize="10" guides="1" tooltips="1" connect="1" arrows="1" fold="1" page="1" pageScale="1" pageWidth="850" pageHeight="1100" math="0" shadow="0">
      <root>
        <mxCell id="0" />
        <mxCell id="1" parent="0" />
        <mxCell id="37GIN9sQ5EDTgkj8eyPC-1" value="&lt;font style=&quot;font-size: 16px;&quot;&gt;Launchpad&lt;/font&gt;" style="rounded=0;whiteSpace=wrap;html=1;" vertex="1" parent="1">
          <mxGeometry x="425" y="180" width="120" height="60" as="geometry" />
        </mxCell>
        <mxCell id="37GIN9sQ5EDTgkj8eyPC-2" value="&lt;font style=&quot;font-size: 16px;&quot;&gt;Hosts&lt;/font&gt;" style="shape=rhombus;perimeter=rhombusPerimeter;whiteSpace=wrap;html=1;align=center;" vertex="1" parent="1">
          <mxGeometry x="720" y="180" width="120" height="60" as="geometry" />
        </mxCell>
        <mxCell id="37GIN9sQ5EDTgkj8eyPC-3" value="&lt;font style=&quot;font-size: 16px;&quot;&gt;Launch&lt;/font&gt;" style="rounded=0;whiteSpace=wrap;html=1;" vertex="1" parent="1">
          <mxGeometry x="1020" y="180" width="120" height="60" as="geometry" />
        </mxCell>
        <mxCell id="37GIN9sQ5EDTgkj8eyPC-4" value="" style="endArrow=none;html=1;rounded=0;entryX=0;entryY=0.5;entryDx=0;entryDy=0;exitX=1;exitY=0.5;exitDx=0;exitDy=0;" edge="1" parent="1" source="37GIN9sQ5EDTgkj8eyPC-2" target="37GIN9sQ5EDTgkj8eyPC-3">
          <mxGeometry width="50" height="50" relative="1" as="geometry">
            <mxPoint x="630" y="450" as="sourcePoint" />
            <mxPoint x="680" y="400" as="targetPoint" />
          </mxGeometry>
        </mxCell>
        <mxCell id="37GIN9sQ5EDTgkj8eyPC-5" value="" style="endArrow=none;html=1;rounded=0;exitX=1;exitY=0.5;exitDx=0;exitDy=0;entryX=0;entryY=0.5;entryDx=0;entryDy=0;startArrow=classic;startFill=1;" edge="1" parent="1" target="37GIN9sQ5EDTgkj8eyPC-2">
          <mxGeometry width="50" height="50" relative="1" as="geometry">
            <mxPoint x="545" y="209.67" as="sourcePoint" />
            <mxPoint x="690" y="210" as="targetPoint" />
          </mxGeometry>
        </mxCell>
        <mxCell id="37GIN9sQ5EDTgkj8eyPC-6" value="" style="endArrow=none;html=1;rounded=0;entryX=-0.012;entryY=0.655;entryDx=0;entryDy=0;entryPerimeter=0;exitX=0.917;exitY=0.667;exitDx=0;exitDy=0;exitPerimeter=0;" edge="1" parent="1">
          <mxGeometry width="50" height="50" relative="1" as="geometry">
            <mxPoint x="830.04" y="218.01999999999998" as="sourcePoint" />
            <mxPoint x="1018.56" y="217.30000000000007" as="targetPoint" />
          </mxGeometry>
        </mxCell>
        <mxCell id="37GIN9sQ5EDTgkj8eyPC-7" value="&lt;font style=&quot;font-size: 16px;&quot;&gt;Locate&lt;/font&gt;" style="shape=rhombus;perimeter=rhombusPerimeter;whiteSpace=wrap;html=1;align=center;" vertex="1" parent="1">
          <mxGeometry x="420" y="390" width="120" height="60" as="geometry" />
        </mxCell>
        <mxCell id="37GIN9sQ5EDTgkj8eyPC-8" value="&lt;font style=&quot;font-size: 16px;&quot;&gt;Country&lt;/font&gt;" style="rounded=0;whiteSpace=wrap;html=1;" vertex="1" parent="1">
          <mxGeometry x="420" y="600" width="120" height="60" as="geometry" />
        </mxCell>
        <mxCell id="37GIN9sQ5EDTgkj8eyPC-9" value="" style="endArrow=none;html=1;rounded=0;exitX=0.5;exitY=0;exitDx=0;exitDy=0;entryX=0.46;entryY=1.016;entryDx=0;entryDy=0;entryPerimeter=0;" edge="1" parent="1" source="37GIN9sQ5EDTgkj8eyPC-7" target="37GIN9sQ5EDTgkj8eyPC-1">
          <mxGeometry width="50" height="50" relative="1" as="geometry">
            <mxPoint x="380" y="370" as="sourcePoint" />
            <mxPoint x="430" y="320" as="targetPoint" />
          </mxGeometry>
        </mxCell>
        <mxCell id="37GIN9sQ5EDTgkj8eyPC-10" value="" style="endArrow=none;html=1;rounded=0;exitX=0.5;exitY=0;exitDx=0;exitDy=0;entryX=0.46;entryY=1.016;entryDx=0;entryDy=0;entryPerimeter=0;startArrow=classic;startFill=1;" edge="1" parent="1">
          <mxGeometry width="50" height="50" relative="1" as="geometry">
            <mxPoint x="479.58" y="599" as="sourcePoint" />
            <mxPoint x="479.58" y="450" as="targetPoint" />
          </mxGeometry>
        </mxCell>
        <mxCell id="37GIN9sQ5EDTgkj8eyPC-11" value="&lt;font style=&quot;font-size: 16px;&quot;&gt;Locate&lt;/font&gt;" style="shape=rhombus;perimeter=rhombusPerimeter;whiteSpace=wrap;html=1;align=center;" vertex="1" parent="1">
          <mxGeometry x="713" y="600" width="120" height="60" as="geometry" />
        </mxCell>
        <mxCell id="37GIN9sQ5EDTgkj8eyPC-12" value="" style="endArrow=none;html=1;rounded=0;exitX=1;exitY=0.5;exitDx=0;exitDy=0;entryX=0;entryY=0.5;entryDx=0;entryDy=0;startArrow=none;startFill=0;" edge="1" parent="1">
          <mxGeometry width="50" height="50" relative="1" as="geometry">
            <mxPoint x="540" y="629.58" as="sourcePoint" />
            <mxPoint x="715" y="629.9100000000001" as="targetPoint" />
          </mxGeometry>
        </mxCell>
        <mxCell id="37GIN9sQ5EDTgkj8eyPC-13" value="" style="endArrow=classic;html=1;rounded=0;entryX=0;entryY=0.5;entryDx=0;entryDy=0;exitX=1;exitY=0.5;exitDx=0;exitDy=0;endFill=1;" edge="1" target="37GIN9sQ5EDTgkj8eyPC-14" parent="1">
          <mxGeometry width="50" height="50" relative="1" as="geometry">
            <mxPoint x="833" y="630" as="sourcePoint" />
            <mxPoint x="673" y="820" as="targetPoint" />
          </mxGeometry>
        </mxCell>
        <mxCell id="37GIN9sQ5EDTgkj8eyPC-14" value="&lt;font style=&quot;font-size: 16px;&quot;&gt;Continent&lt;/font&gt;" style="rounded=0;whiteSpace=wrap;html=1;" vertex="1" parent="1">
          <mxGeometry x="930" y="600" width="120" height="60" as="geometry" />
        </mxCell>
        <mxCell id="37GIN9sQ5EDTgkj8eyPC-15" style="rounded=0;orthogonalLoop=1;jettySize=auto;html=1;endArrow=none;endFill=0;entryX=0.437;entryY=-0.026;entryDx=0;entryDy=0;exitX=0.424;exitY=1.052;exitDx=0;exitDy=0;exitPerimeter=0;entryPerimeter=0;" edge="1" parent="1" target="37GIN9sQ5EDTgkj8eyPC-1">
          <mxGeometry relative="1" as="geometry">
            <mxPoint x="477.4000000000001" y="102.08000000000015" as="sourcePoint" />
            <mxPoint x="470" y="180" as="targetPoint" />
          </mxGeometry>
        </mxCell>
        <mxCell id="37GIN9sQ5EDTgkj8eyPC-17" value="&lt;font style=&quot;font-size: 15px;&quot;&gt;Location&lt;/font&gt;" style="ellipse;whiteSpace=wrap;html=1;align=center;" vertex="1" parent="1">
          <mxGeometry x="540" y="81" width="100" height="40" as="geometry" />
        </mxCell>
        <mxCell id="37GIN9sQ5EDTgkj8eyPC-18" style="rounded=0;orthogonalLoop=1;jettySize=auto;html=1;endArrow=none;endFill=0;entryX=0.5;entryY=0;entryDx=0;entryDy=0;" edge="1" parent="1">
          <mxGeometry relative="1" as="geometry">
            <mxPoint x="570" y="120" as="sourcePoint" />
            <mxPoint x="510" y="180" as="targetPoint" />
          </mxGeometry>
        </mxCell>
        <mxCell id="37GIN9sQ5EDTgkj8eyPC-19" value="" style="endArrow=none;html=1;rounded=0;exitX=0.5;exitY=0;exitDx=0;exitDy=0;entryX=0.537;entryY=1.034;entryDx=0;entryDy=0;entryPerimeter=0;" edge="1" parent="1">
          <mxGeometry width="50" height="50" relative="1" as="geometry">
            <mxPoint x="490" y="395" as="sourcePoint" />
            <mxPoint x="489.44000000000005" y="241.03999999999996" as="targetPoint" />
          </mxGeometry>
        </mxCell>
        <mxCell id="37GIN9sQ5EDTgkj8eyPC-20" value="" style="endArrow=none;html=1;rounded=0;exitX=1;exitY=0.66;exitDx=0;exitDy=0;entryX=0.084;entryY=0.66;entryDx=0;entryDy=0;startArrow=none;startFill=0;entryPerimeter=0;exitPerimeter=0;" edge="1" parent="1">
          <mxGeometry width="50" height="50" relative="1" as="geometry">
            <mxPoint x="540.0000000000002" y="638.6000000000001" as="sourcePoint" />
            <mxPoint x="731.0800000000002" y="638.6000000000001" as="targetPoint" />
          </mxGeometry>
        </mxCell>
        <mxCell id="37GIN9sQ5EDTgkj8eyPC-22" value="&lt;font style=&quot;font-size: 16px;&quot;&gt;Carries&lt;/font&gt;" style="shape=rhombus;perimeter=rhombusPerimeter;whiteSpace=wrap;html=1;align=center;" vertex="1" parent="1">
          <mxGeometry x="1315" y="180" width="120" height="60" as="geometry" />
        </mxCell>
        <mxCell id="37GIN9sQ5EDTgkj8eyPC-23" value="" style="endArrow=classic;html=1;rounded=0;exitX=1;exitY=0.5;exitDx=0;exitDy=0;entryX=0;entryY=0.5;entryDx=0;entryDy=0;startArrow=none;startFill=0;endFill=1;" edge="1" target="37GIN9sQ5EDTgkj8eyPC-22" parent="1">
          <mxGeometry width="50" height="50" relative="1" as="geometry">
            <mxPoint x="1140" y="209.67" as="sourcePoint" />
            <mxPoint x="1285" y="210" as="targetPoint" />
          </mxGeometry>
        </mxCell>
        <mxCell id="37GIN9sQ5EDTgkj8eyPC-24" value="&lt;font style=&quot;font-size: 16px;&quot;&gt;Payload&lt;/font&gt;" style="rounded=0;whiteSpace=wrap;html=1;" vertex="1" parent="1">
          <mxGeometry x="1615" y="180" width="120" height="60" as="geometry" />
        </mxCell>
        <mxCell id="37GIN9sQ5EDTgkj8eyPC-25" value="" style="endArrow=none;html=1;rounded=0;entryX=0;entryY=0.5;entryDx=0;entryDy=0;exitX=1;exitY=0.5;exitDx=0;exitDy=0;startArrow=classic;startFill=1;" edge="1" parent="1">
          <mxGeometry width="50" height="50" relative="1" as="geometry">
            <mxPoint x="1435" y="209.58" as="sourcePoint" />
            <mxPoint x="1615" y="209.58" as="targetPoint" />
          </mxGeometry>
        </mxCell>
        <mxCell id="37GIN9sQ5EDTgkj8eyPC-26" value="&lt;font style=&quot;font-size: 13px;&quot;&gt;Performed By&lt;/font&gt;" style="shape=rhombus;perimeter=rhombusPerimeter;whiteSpace=wrap;html=1;align=center;" vertex="1" parent="1">
          <mxGeometry x="1020" y="-29" width="120" height="60" as="geometry" />
        </mxCell>
        <mxCell id="37GIN9sQ5EDTgkj8eyPC-27" value="" style="endArrow=classic;html=1;rounded=0;exitX=0.5;exitY=0;exitDx=0;exitDy=0;entryX=0.46;entryY=1.016;entryDx=0;entryDy=0;entryPerimeter=0;startArrow=none;startFill=0;endFill=1;" edge="1" source="37GIN9sQ5EDTgkj8eyPC-26" parent="1">
          <mxGeometry width="50" height="50" relative="1" as="geometry">
            <mxPoint x="980" y="-49" as="sourcePoint" />
            <mxPoint x="1080" y="-178" as="targetPoint" />
          </mxGeometry>
        </mxCell>
        <mxCell id="37GIN9sQ5EDTgkj8eyPC-28" value="" style="endArrow=none;html=1;rounded=0;exitX=0.5;exitY=0;exitDx=0;exitDy=0;entryX=0.46;entryY=1.016;entryDx=0;entryDy=0;entryPerimeter=0;startArrow=none;startFill=0;" edge="1" parent="1">
          <mxGeometry width="50" height="50" relative="1" as="geometry">
            <mxPoint x="1079.58" y="180" as="sourcePoint" />
            <mxPoint x="1079.58" y="31" as="targetPoint" />
          </mxGeometry>
        </mxCell>
        <mxCell id="37GIN9sQ5EDTgkj8eyPC-30" value="&lt;font style=&quot;font-size: 16px;&quot;&gt;Launch_Vehicle&lt;/font&gt;" style="rounded=0;whiteSpace=wrap;html=1;" vertex="1" parent="1">
          <mxGeometry x="1020" y="-238" width="120" height="60" as="geometry" />
        </mxCell>
        <mxCell id="37GIN9sQ5EDTgkj8eyPC-31" style="rounded=0;orthogonalLoop=1;jettySize=auto;html=1;endArrow=none;endFill=0;entryX=0;entryY=1;entryDx=0;entryDy=0;" edge="1" parent="1" target="37GIN9sQ5EDTgkj8eyPC-3">
          <mxGeometry relative="1" as="geometry">
            <mxPoint x="900" y="310" as="sourcePoint" />
            <mxPoint x="1075" y="240" as="targetPoint" />
          </mxGeometry>
        </mxCell>
        <mxCell id="37GIN9sQ5EDTgkj8eyPC-33" style="rounded=0;orthogonalLoop=1;jettySize=auto;html=1;endArrow=none;endFill=0;entryX=0.142;entryY=1.012;entryDx=0;entryDy=0;entryPerimeter=0;exitX=1;exitY=0.5;exitDx=0;exitDy=0;" edge="1" parent="1" source="37GIN9sQ5EDTgkj8eyPC-34" target="37GIN9sQ5EDTgkj8eyPC-3">
          <mxGeometry relative="1" as="geometry">
            <mxPoint x="1040" y="330" as="sourcePoint" />
            <mxPoint x="1085" y="250" as="targetPoint" />
          </mxGeometry>
        </mxCell>
        <mxCell id="37GIN9sQ5EDTgkj8eyPC-34" value="&lt;font style=&quot;font-size: 15px;&quot;&gt;Date&lt;/font&gt;" style="ellipse;whiteSpace=wrap;html=1;align=center;" vertex="1" parent="1">
          <mxGeometry x="800" y="340" width="100" height="40" as="geometry" />
        </mxCell>
        <mxCell id="37GIN9sQ5EDTgkj8eyPC-35" value="&lt;font style=&quot;font-size: 15px;&quot;&gt;Time&lt;/font&gt;" style="ellipse;whiteSpace=wrap;html=1;align=center;" vertex="1" parent="1">
          <mxGeometry x="1140" y="340" width="100" height="40" as="geometry" />
        </mxCell>
        <mxCell id="37GIN9sQ5EDTgkj8eyPC-36" value="&lt;font style=&quot;font-size: 15px;&quot;&gt;Name&lt;/font&gt;" style="ellipse;whiteSpace=wrap;html=1;align=center;" vertex="1" parent="1">
          <mxGeometry x="1215" y="290" width="100" height="40" as="geometry" />
        </mxCell>
        <mxCell id="37GIN9sQ5EDTgkj8eyPC-37" style="rounded=0;orthogonalLoop=1;jettySize=auto;html=1;endArrow=none;endFill=0;entryX=0.806;entryY=1.024;entryDx=0;entryDy=0;entryPerimeter=0;exitX=0.412;exitY=0.018;exitDx=0;exitDy=0;exitPerimeter=0;" edge="1" parent="1" source="37GIN9sQ5EDTgkj8eyPC-35" target="37GIN9sQ5EDTgkj8eyPC-3">
          <mxGeometry relative="1" as="geometry">
            <mxPoint x="1120" y="340" as="sourcePoint" />
            <mxPoint x="1114" y="251" as="targetPoint" />
          </mxGeometry>
        </mxCell>
        <mxCell id="37GIN9sQ5EDTgkj8eyPC-38" style="rounded=0;orthogonalLoop=1;jettySize=auto;html=1;endArrow=none;endFill=0;entryX=0.878;entryY=1.004;entryDx=0;entryDy=0;entryPerimeter=0;exitX=0;exitY=0;exitDx=0;exitDy=0;" edge="1" parent="1" source="37GIN9sQ5EDTgkj8eyPC-36" target="37GIN9sQ5EDTgkj8eyPC-3">
          <mxGeometry relative="1" as="geometry">
            <mxPoint x="1190" y="320" as="sourcePoint" />
            <mxPoint x="1120" y="250" as="targetPoint" />
          </mxGeometry>
        </mxCell>
        <mxCell id="37GIN9sQ5EDTgkj8eyPC-39" value="&lt;font style=&quot;font-size: 15px;&quot;&gt;Crewed&lt;/font&gt;" style="ellipse;whiteSpace=wrap;html=1;align=center;" vertex="1" parent="1">
          <mxGeometry x="1260" y="250" width="100" height="40" as="geometry" />
        </mxCell>
        <mxCell id="37GIN9sQ5EDTgkj8eyPC-40" style="rounded=0;orthogonalLoop=1;jettySize=auto;html=1;endArrow=none;endFill=0;entryX=1;entryY=1;entryDx=0;entryDy=0;exitX=0.08;exitY=0.239;exitDx=0;exitDy=0;exitPerimeter=0;" edge="1" parent="1" source="37GIN9sQ5EDTgkj8eyPC-39" target="37GIN9sQ5EDTgkj8eyPC-3">
          <mxGeometry relative="1" as="geometry">
            <mxPoint x="1200" y="330" as="sourcePoint" />
            <mxPoint x="1135" y="250" as="targetPoint" />
          </mxGeometry>
        </mxCell>
        <mxCell id="37GIN9sQ5EDTgkj8eyPC-43" value="" style="endArrow=none;html=1;rounded=0;exitX=0.5;exitY=0;exitDx=0;exitDy=0;entryX=0.537;entryY=1.034;entryDx=0;entryDy=0;entryPerimeter=0;" edge="1" parent="1">
          <mxGeometry width="50" height="50" relative="1" as="geometry">
            <mxPoint x="1090.56" y="180" as="sourcePoint" />
            <mxPoint x="1090" y="26.039999999999964" as="targetPoint" />
          </mxGeometry>
        </mxCell>
        <mxCell id="37GIN9sQ5EDTgkj8eyPC-44" style="rounded=0;orthogonalLoop=1;jettySize=auto;html=1;endArrow=none;endFill=0;entryX=0.437;entryY=-0.026;entryDx=0;entryDy=0;exitX=0.424;exitY=1.052;exitDx=0;exitDy=0;exitPerimeter=0;entryPerimeter=0;" edge="1" parent="1">
          <mxGeometry relative="1" as="geometry">
            <mxPoint x="1075.4" y="-313.9200000000001" as="sourcePoint" />
            <mxPoint x="1075" y="-238" as="targetPoint" />
          </mxGeometry>
        </mxCell>
        <mxCell id="37GIN9sQ5EDTgkj8eyPC-46" value="&lt;font style=&quot;font-size: 16px;&quot;&gt;Belong To&lt;/font&gt;" style="shape=rhombus;perimeter=rhombusPerimeter;whiteSpace=wrap;html=1;align=center;" vertex="1" parent="1">
          <mxGeometry x="1315" y="-238" width="120" height="60" as="geometry" />
        </mxCell>
        <mxCell id="37GIN9sQ5EDTgkj8eyPC-47" value="" style="endArrow=none;html=1;rounded=0;exitX=1;exitY=0.5;exitDx=0;exitDy=0;entryX=0;entryY=0.5;entryDx=0;entryDy=0;startArrow=none;startFill=0;" edge="1" target="37GIN9sQ5EDTgkj8eyPC-46" parent="1">
          <mxGeometry width="50" height="50" relative="1" as="geometry">
            <mxPoint x="1140" y="-208.33" as="sourcePoint" />
            <mxPoint x="1285" y="-208" as="targetPoint" />
          </mxGeometry>
        </mxCell>
        <mxCell id="37GIN9sQ5EDTgkj8eyPC-48" value="&lt;font style=&quot;font-size: 16px;&quot;&gt;Launch_Vehicle&lt;br&gt;Type&lt;/font&gt;" style="rounded=0;whiteSpace=wrap;html=1;" vertex="1" parent="1">
          <mxGeometry x="1615" y="-238" width="120" height="60" as="geometry" />
        </mxCell>
        <mxCell id="37GIN9sQ5EDTgkj8eyPC-49" value="" style="endArrow=classic;html=1;rounded=0;entryX=0;entryY=0.5;entryDx=0;entryDy=0;exitX=1;exitY=0.5;exitDx=0;exitDy=0;endFill=1;" edge="1" parent="1">
          <mxGeometry width="50" height="50" relative="1" as="geometry">
            <mxPoint x="1435" y="-208.42" as="sourcePoint" />
            <mxPoint x="1615" y="-208.42" as="targetPoint" />
          </mxGeometry>
        </mxCell>
        <mxCell id="37GIN9sQ5EDTgkj8eyPC-50" value="&lt;font style=&quot;font-size: 15px;&quot;&gt;LName&lt;/font&gt;" style="ellipse;whiteSpace=wrap;html=1;align=center;fontStyle=4;" vertex="1" parent="1">
          <mxGeometry x="430" y="61" width="100" height="40" as="geometry" />
        </mxCell>
        <mxCell id="37GIN9sQ5EDTgkj8eyPC-51" value="&lt;font style=&quot;font-size: 15px;&quot;&gt;LaunchID&lt;/font&gt;" style="ellipse;whiteSpace=wrap;html=1;align=center;fontStyle=4;" vertex="1" parent="1">
          <mxGeometry x="800" y="290" width="100" height="40" as="geometry" />
        </mxCell>
        <mxCell id="37GIN9sQ5EDTgkj8eyPC-52" value="&lt;font style=&quot;font-size: 15px;&quot;&gt;Serial_Num&lt;/font&gt;" style="ellipse;whiteSpace=wrap;html=1;align=center;fontStyle=4;" vertex="1" parent="1">
          <mxGeometry x="1023" y="-350" width="100" height="40" as="geometry" />
        </mxCell>
        <mxCell id="37GIN9sQ5EDTgkj8eyPC-53" style="rounded=0;orthogonalLoop=1;jettySize=auto;html=1;endArrow=none;endFill=0;entryX=0.437;entryY=-0.026;entryDx=0;entryDy=0;entryPerimeter=0;" edge="1" parent="1">
          <mxGeometry relative="1" as="geometry">
            <mxPoint x="1630" y="-310" as="sourcePoint" />
            <mxPoint x="1660" y="-238" as="targetPoint" />
          </mxGeometry>
        </mxCell>
        <mxCell id="37GIN9sQ5EDTgkj8eyPC-54" value="&lt;font style=&quot;font-size: 15px;&quot;&gt;Name&lt;/font&gt;" style="ellipse;whiteSpace=wrap;html=1;align=center;fontStyle=4;" vertex="1" parent="1">
          <mxGeometry x="1570" y="-350" width="100" height="40" as="geometry" />
        </mxCell>
        <mxCell id="37GIN9sQ5EDTgkj8eyPC-55" style="rounded=0;orthogonalLoop=1;jettySize=auto;html=1;endArrow=none;endFill=0;entryX=0.5;entryY=0;entryDx=0;entryDy=0;" edge="1" parent="1" target="37GIN9sQ5EDTgkj8eyPC-48">
          <mxGeometry relative="1" as="geometry">
            <mxPoint x="1700" y="-310" as="sourcePoint" />
            <mxPoint x="1690" y="-238" as="targetPoint" />
          </mxGeometry>
        </mxCell>
        <mxCell id="37GIN9sQ5EDTgkj8eyPC-56" style="rounded=0;orthogonalLoop=1;jettySize=auto;html=1;endArrow=none;endFill=0;entryX=0.75;entryY=0;entryDx=0;entryDy=0;exitX=0;exitY=1;exitDx=0;exitDy=0;" edge="1" parent="1" source="37GIN9sQ5EDTgkj8eyPC-58" target="37GIN9sQ5EDTgkj8eyPC-48">
          <mxGeometry relative="1" as="geometry">
            <mxPoint x="1760" y="-290" as="sourcePoint" />
            <mxPoint x="1765" y="-248" as="targetPoint" />
          </mxGeometry>
        </mxCell>
        <mxCell id="37GIN9sQ5EDTgkj8eyPC-57" value="&lt;font style=&quot;font-size: 15px;&quot;&gt;Max_Thrust&lt;/font&gt;" style="ellipse;whiteSpace=wrap;html=1;align=center;" vertex="1" parent="1">
          <mxGeometry x="1670" y="-330" width="100" height="40" as="geometry" />
        </mxCell>
        <mxCell id="37GIN9sQ5EDTgkj8eyPC-58" value="&lt;font style=&quot;font-size: 15px;&quot;&gt;Reusable&lt;/font&gt;" style="ellipse;whiteSpace=wrap;html=1;align=center;" vertex="1" parent="1">
          <mxGeometry x="1760" y="-300" width="100" height="40" as="geometry" />
        </mxCell>
        <mxCell id="37GIN9sQ5EDTgkj8eyPC-59" value="&lt;span style=&quot;font-size: 16px;&quot;&gt;Manufacturer&lt;/span&gt;" style="rounded=0;whiteSpace=wrap;html=1;" vertex="1" parent="1">
          <mxGeometry x="1913" y="-29" width="120" height="60" as="geometry" />
        </mxCell>
        <mxCell id="37GIN9sQ5EDTgkj8eyPC-60" value="&lt;font style=&quot;font-size: 16px;&quot;&gt;Make&lt;/font&gt;" style="shape=rhombus;perimeter=rhombusPerimeter;whiteSpace=wrap;html=1;align=center;" vertex="1" parent="1">
          <mxGeometry x="1913" y="-238" width="120" height="60" as="geometry" />
        </mxCell>
        <mxCell id="37GIN9sQ5EDTgkj8eyPC-61" value="" style="endArrow=none;html=1;rounded=0;entryX=0;entryY=0.5;entryDx=0;entryDy=0;exitX=1;exitY=0.5;exitDx=0;exitDy=0;" edge="1" parent="1">
          <mxGeometry width="50" height="50" relative="1" as="geometry">
            <mxPoint x="1735" y="-208.42" as="sourcePoint" />
            <mxPoint x="1915" y="-208.42" as="targetPoint" />
          </mxGeometry>
        </mxCell>
        <mxCell id="37GIN9sQ5EDTgkj8eyPC-62" value="" style="endArrow=none;html=1;rounded=0;exitX=0.5;exitY=0;exitDx=0;exitDy=0;entryX=0.46;entryY=1.016;entryDx=0;entryDy=0;entryPerimeter=0;startArrow=classic;startFill=1;endFill=0;" edge="1" parent="1">
          <mxGeometry width="50" height="50" relative="1" as="geometry">
            <mxPoint x="1972.58" y="-29" as="sourcePoint" />
            <mxPoint x="1972.58" y="-178" as="targetPoint" />
          </mxGeometry>
        </mxCell>
        <mxCell id="37GIN9sQ5EDTgkj8eyPC-63" value="" style="endArrow=classic;html=1;rounded=0;exitX=0.5;exitY=0;exitDx=0;exitDy=0;entryX=0.46;entryY=1.016;entryDx=0;entryDy=0;entryPerimeter=0;startArrow=none;startFill=0;endFill=1;" edge="1" parent="1">
          <mxGeometry width="50" height="50" relative="1" as="geometry">
            <mxPoint x="1972.58" y="180" as="sourcePoint" />
            <mxPoint x="1972.58" y="31" as="targetPoint" />
          </mxGeometry>
        </mxCell>
        <mxCell id="37GIN9sQ5EDTgkj8eyPC-64" value="&lt;font style=&quot;font-size: 16px;&quot;&gt;Produces&lt;/font&gt;" style="shape=rhombus;perimeter=rhombusPerimeter;whiteSpace=wrap;html=1;align=center;" vertex="1" parent="1">
          <mxGeometry x="1913" y="180" width="120" height="60" as="geometry" />
        </mxCell>
        <mxCell id="37GIN9sQ5EDTgkj8eyPC-65" value="" style="endArrow=none;html=1;rounded=0;entryX=0;entryY=0.5;entryDx=0;entryDy=0;exitX=1;exitY=0.5;exitDx=0;exitDy=0;" edge="1" parent="1">
          <mxGeometry width="50" height="50" relative="1" as="geometry">
            <mxPoint x="1734" y="209.58" as="sourcePoint" />
            <mxPoint x="1914" y="209.58" as="targetPoint" />
          </mxGeometry>
        </mxCell>
        <mxCell id="37GIN9sQ5EDTgkj8eyPC-66" value="" style="endArrow=none;html=1;rounded=0;entryX=0.08;entryY=0.622;entryDx=0;entryDy=0;exitX=1;exitY=0.5;exitDx=0;exitDy=0;entryPerimeter=0;" edge="1" parent="1">
          <mxGeometry width="50" height="50" relative="1" as="geometry">
            <mxPoint x="1736" y="-200" as="sourcePoint" />
            <mxPoint x="1923.6" y="-200.67999999999984" as="targetPoint" />
          </mxGeometry>
        </mxCell>
        <mxCell id="37GIN9sQ5EDTgkj8eyPC-70" value="" style="endArrow=none;html=1;rounded=0;exitX=0.862;exitY=0.692;exitDx=0;exitDy=0;startArrow=none;startFill=0;exitPerimeter=0;" edge="1" parent="1">
          <mxGeometry width="50" height="50" relative="1" as="geometry">
            <mxPoint x="1421.44" y="219.51999999999998" as="sourcePoint" />
            <mxPoint x="1613" y="220" as="targetPoint" />
          </mxGeometry>
        </mxCell>
        <mxCell id="37GIN9sQ5EDTgkj8eyPC-71" value="" style="endArrow=none;html=1;rounded=0;exitX=0.862;exitY=0.692;exitDx=0;exitDy=0;startArrow=none;startFill=0;exitPerimeter=0;" edge="1" parent="1">
          <mxGeometry width="50" height="50" relative="1" as="geometry">
            <mxPoint x="1140" y="219.99999999999997" as="sourcePoint" />
            <mxPoint x="1331.56" y="220.48" as="targetPoint" />
          </mxGeometry>
        </mxCell>
        <mxCell id="37GIN9sQ5EDTgkj8eyPC-72" value="" style="endArrow=none;html=1;rounded=0;exitX=0.862;exitY=0.692;exitDx=0;exitDy=0;startArrow=none;startFill=0;exitPerimeter=0;" edge="1" parent="1">
          <mxGeometry width="50" height="50" relative="1" as="geometry">
            <mxPoint x="1735" y="219.99999999999997" as="sourcePoint" />
            <mxPoint x="1926.56" y="220.48" as="targetPoint" />
          </mxGeometry>
        </mxCell>
        <mxCell id="37GIN9sQ5EDTgkj8eyPC-79" value="" style="endArrow=none;html=1;rounded=0;exitX=0.5;exitY=0;exitDx=0;exitDy=0;entryX=0.46;entryY=1.016;entryDx=0;entryDy=0;entryPerimeter=0;startArrow=none;startFill=0;endFill=0;" edge="1" parent="1">
          <mxGeometry width="50" height="50" relative="1" as="geometry">
            <mxPoint x="1083" y="389" as="sourcePoint" />
            <mxPoint x="1083" y="240" as="targetPoint" />
          </mxGeometry>
        </mxCell>
        <mxCell id="37GIN9sQ5EDTgkj8eyPC-82" value="" style="endArrow=none;html=1;rounded=0;entryX=0;entryY=0.5;entryDx=0;entryDy=0;exitX=1;exitY=0.5;exitDx=0;exitDy=0;" edge="1" parent="1">
          <mxGeometry width="50" height="50" relative="1" as="geometry">
            <mxPoint x="843" y="419.57" as="sourcePoint" />
            <mxPoint x="1023" y="419.57" as="targetPoint" />
          </mxGeometry>
        </mxCell>
        <mxCell id="37GIN9sQ5EDTgkj8eyPC-83" value="&lt;font style=&quot;font-size: 16px;&quot;&gt;Crew_Member&lt;/font&gt;" style="rounded=0;whiteSpace=wrap;html=1;" vertex="1" parent="1">
          <mxGeometry x="730" y="390" width="120" height="60" as="geometry" />
        </mxCell>
        <mxCell id="37GIN9sQ5EDTgkj8eyPC-84" value="&lt;font style=&quot;font-size: 16px;&quot;&gt;Carries&lt;/font&gt;" style="shape=associativeEntity;whiteSpace=wrap;html=1;align=center;" vertex="1" parent="1">
          <mxGeometry x="1020" y="390" width="130" height="60" as="geometry" />
        </mxCell>
        <mxCell id="37GIN9sQ5EDTgkj8eyPC-85" style="rounded=0;orthogonalLoop=1;jettySize=auto;html=1;endArrow=none;endFill=0;entryX=0.916;entryY=1.014;entryDx=0;entryDy=0;entryPerimeter=0;" edge="1" parent="1" target="37GIN9sQ5EDTgkj8eyPC-83">
          <mxGeometry relative="1" as="geometry">
            <mxPoint x="870" y="490" as="sourcePoint" />
            <mxPoint x="849.8400000000001" y="460.0000000000002" as="targetPoint" />
          </mxGeometry>
        </mxCell>
        <mxCell id="37GIN9sQ5EDTgkj8eyPC-86" value="&lt;font style=&quot;font-size: 15px;&quot;&gt;CrewID&lt;/font&gt;" style="ellipse;whiteSpace=wrap;html=1;align=center;fontStyle=4;" vertex="1" parent="1">
          <mxGeometry x="850" y="480" width="100" height="40" as="geometry" />
        </mxCell>
        <mxCell id="37GIN9sQ5EDTgkj8eyPC-87" style="rounded=0;orthogonalLoop=1;jettySize=auto;html=1;endArrow=none;endFill=0;entryX=0.692;entryY=1.014;entryDx=0;entryDy=0;entryPerimeter=0;exitX=0.605;exitY=0.079;exitDx=0;exitDy=0;exitPerimeter=0;" edge="1" parent="1" source="37GIN9sQ5EDTgkj8eyPC-90" target="37GIN9sQ5EDTgkj8eyPC-83">
          <mxGeometry relative="1" as="geometry">
            <mxPoint x="810" y="500" as="sourcePoint" />
            <mxPoint x="800" y="461" as="targetPoint" />
          </mxGeometry>
        </mxCell>
        <mxCell id="37GIN9sQ5EDTgkj8eyPC-88" style="rounded=0;orthogonalLoop=1;jettySize=auto;html=1;endArrow=none;endFill=0;entryX=0;entryY=0.75;entryDx=0;entryDy=0;" edge="1" parent="1" target="37GIN9sQ5EDTgkj8eyPC-83">
          <mxGeometry relative="1" as="geometry">
            <mxPoint x="680" y="460" as="sourcePoint" />
            <mxPoint x="713" y="440" as="targetPoint" />
          </mxGeometry>
        </mxCell>
        <mxCell id="37GIN9sQ5EDTgkj8eyPC-89" style="rounded=0;orthogonalLoop=1;jettySize=auto;html=1;endArrow=none;endFill=0;entryX=0.692;entryY=1.014;entryDx=0;entryDy=0;entryPerimeter=0;" edge="1" parent="1">
          <mxGeometry relative="1" as="geometry">
            <mxPoint x="700" y="490" as="sourcePoint" />
            <mxPoint x="733" y="450" as="targetPoint" />
          </mxGeometry>
        </mxCell>
        <mxCell id="37GIN9sQ5EDTgkj8eyPC-90" value="&lt;font style=&quot;font-size: 15px;&quot;&gt;Nationality&lt;/font&gt;" style="ellipse;whiteSpace=wrap;html=1;align=center;" vertex="1" parent="1">
          <mxGeometry x="770" y="510" width="100" height="40" as="geometry" />
        </mxCell>
        <mxCell id="37GIN9sQ5EDTgkj8eyPC-91" value="&lt;font style=&quot;font-size: 15px;&quot;&gt;Name&lt;/font&gt;" style="ellipse;whiteSpace=wrap;html=1;align=center;" vertex="1" parent="1">
          <mxGeometry x="640" y="490" width="100" height="40" as="geometry" />
        </mxCell>
        <mxCell id="37GIN9sQ5EDTgkj8eyPC-92" value="&lt;font style=&quot;font-size: 15px;&quot;&gt;Surname&lt;/font&gt;" style="ellipse;whiteSpace=wrap;html=1;align=center;" vertex="1" parent="1">
          <mxGeometry x="590" y="450" width="100" height="40" as="geometry" />
        </mxCell>
        <mxCell id="37GIN9sQ5EDTgkj8eyPC-93" value="" style="endArrow=none;html=1;rounded=0;entryX=0.537;entryY=1.034;entryDx=0;entryDy=0;entryPerimeter=0;" edge="1" parent="1">
          <mxGeometry width="50" height="50" relative="1" as="geometry">
            <mxPoint x="760" y="560" as="sourcePoint" />
            <mxPoint x="760" y="450" as="targetPoint" />
          </mxGeometry>
        </mxCell>
        <mxCell id="37GIN9sQ5EDTgkj8eyPC-94" value="&lt;font style=&quot;font-size: 16px;&quot;&gt;Comes from&lt;/font&gt;" style="shape=rhombus;perimeter=rhombusPerimeter;whiteSpace=wrap;html=1;align=center;" vertex="1" parent="1">
          <mxGeometry x="560" y="530" width="120" height="60" as="geometry" />
        </mxCell>
        <mxCell id="37GIN9sQ5EDTgkj8eyPC-95" value="" style="endArrow=none;html=1;rounded=0;exitX=1;exitY=0.5;exitDx=0;exitDy=0;startArrow=none;startFill=0;" edge="1" parent="1">
          <mxGeometry width="50" height="50" relative="1" as="geometry">
            <mxPoint x="680" y="559.57" as="sourcePoint" />
            <mxPoint x="760" y="560" as="targetPoint" />
          </mxGeometry>
        </mxCell>
        <mxCell id="37GIN9sQ5EDTgkj8eyPC-96" value="" style="endArrow=classic;html=1;rounded=0;entryX=0.75;entryY=0;entryDx=0;entryDy=0;startArrow=none;startFill=0;endFill=1;" edge="1" parent="1" target="37GIN9sQ5EDTgkj8eyPC-8">
          <mxGeometry width="50" height="50" relative="1" as="geometry">
            <mxPoint x="510" y="560" as="sourcePoint" />
            <mxPoint x="725" y="639.9100000000001" as="targetPoint" />
          </mxGeometry>
        </mxCell>
        <mxCell id="37GIN9sQ5EDTgkj8eyPC-97" value="" style="endArrow=none;html=1;rounded=0;exitX=1;exitY=0.5;exitDx=0;exitDy=0;startArrow=none;startFill=0;" edge="1" parent="1">
          <mxGeometry width="50" height="50" relative="1" as="geometry">
            <mxPoint x="510" y="559.57" as="sourcePoint" />
            <mxPoint x="560" y="560" as="targetPoint" />
          </mxGeometry>
        </mxCell>
        <mxCell id="37GIN9sQ5EDTgkj8eyPC-99" value="" style="endArrow=none;html=1;rounded=0;entryX=0.537;entryY=1.034;entryDx=0;entryDy=0;entryPerimeter=0;" edge="1" parent="1">
          <mxGeometry width="50" height="50" relative="1" as="geometry">
            <mxPoint x="767" y="569" as="sourcePoint" />
            <mxPoint x="767" y="449" as="targetPoint" />
          </mxGeometry>
        </mxCell>
        <mxCell id="37GIN9sQ5EDTgkj8eyPC-100" value="" style="endArrow=none;html=1;rounded=0;exitX=0.917;exitY=0.65;exitDx=0;exitDy=0;startArrow=none;startFill=0;exitPerimeter=0;" edge="1" parent="1">
          <mxGeometry width="50" height="50" relative="1" as="geometry">
            <mxPoint x="670.04" y="567" as="sourcePoint" />
            <mxPoint x="768" y="567" as="targetPoint" />
          </mxGeometry>
        </mxCell>
        <mxCell id="37GIN9sQ5EDTgkj8eyPC-102" style="rounded=0;orthogonalLoop=1;jettySize=auto;html=1;endArrow=none;endFill=0;entryX=0.5;entryY=1;entryDx=0;entryDy=0;" edge="1" parent="1" target="37GIN9sQ5EDTgkj8eyPC-8">
          <mxGeometry relative="1" as="geometry">
            <mxPoint x="480" y="710" as="sourcePoint" />
            <mxPoint x="483" y="670" as="targetPoint" />
          </mxGeometry>
        </mxCell>
        <mxCell id="37GIN9sQ5EDTgkj8eyPC-103" value="&lt;font style=&quot;font-size: 14px;&quot;&gt;Country_Name&lt;/font&gt;" style="ellipse;whiteSpace=wrap;html=1;align=center;fontStyle=4;" vertex="1" parent="1">
          <mxGeometry x="430" y="710" width="100" height="40" as="geometry" />
        </mxCell>
        <mxCell id="37GIN9sQ5EDTgkj8eyPC-104" style="rounded=0;orthogonalLoop=1;jettySize=auto;html=1;endArrow=none;endFill=0;entryX=0.5;entryY=1;entryDx=0;entryDy=0;" edge="1" parent="1">
          <mxGeometry relative="1" as="geometry">
            <mxPoint x="990" y="710" as="sourcePoint" />
            <mxPoint x="990" y="660" as="targetPoint" />
          </mxGeometry>
        </mxCell>
        <mxCell id="37GIN9sQ5EDTgkj8eyPC-105" value="&lt;font style=&quot;font-size: 14px;&quot;&gt;Continent&lt;br&gt;Name&lt;br&gt;&lt;/font&gt;" style="ellipse;whiteSpace=wrap;html=1;align=center;fontStyle=4;" vertex="1" parent="1">
          <mxGeometry x="940" y="710" width="100" height="40" as="geometry" />
        </mxCell>
        <mxCell id="37GIN9sQ5EDTgkj8eyPC-106" value="" style="endArrow=none;html=1;rounded=0;exitX=1;exitY=0.5;exitDx=0;exitDy=0;entryX=0.085;entryY=0.643;entryDx=0;entryDy=0;startArrow=none;startFill=0;entryPerimeter=0;" edge="1" parent="1" target="37GIN9sQ5EDTgkj8eyPC-46">
          <mxGeometry width="50" height="50" relative="1" as="geometry">
            <mxPoint x="1140" y="-198.33" as="sourcePoint" />
            <mxPoint x="1315" y="-198" as="targetPoint" />
          </mxGeometry>
        </mxCell>
        <mxCell id="37GIN9sQ5EDTgkj8eyPC-107" style="rounded=0;orthogonalLoop=1;jettySize=auto;html=1;endArrow=none;endFill=0;entryX=0.989;entryY=0.622;entryDx=0;entryDy=0;entryPerimeter=0;" edge="1" parent="1" target="37GIN9sQ5EDTgkj8eyPC-59">
          <mxGeometry relative="1" as="geometry">
            <mxPoint x="2090" y="8" as="sourcePoint" />
            <mxPoint x="2125" y="-29" as="targetPoint" />
          </mxGeometry>
        </mxCell>
        <mxCell id="37GIN9sQ5EDTgkj8eyPC-108" value="&lt;font style=&quot;font-size: 13px;&quot;&gt;ManufacturerID&lt;/font&gt;" style="ellipse;whiteSpace=wrap;html=1;align=center;fontStyle=4;" vertex="1" parent="1">
          <mxGeometry x="2090" y="-9" width="100" height="40" as="geometry" />
        </mxCell>
        <mxCell id="37GIN9sQ5EDTgkj8eyPC-109" style="rounded=0;orthogonalLoop=1;jettySize=auto;html=1;endArrow=none;endFill=0;entryX=0.989;entryY=0.622;entryDx=0;entryDy=0;entryPerimeter=0;" edge="1" parent="1">
          <mxGeometry relative="1" as="geometry">
            <mxPoint x="2091" y="-40" as="sourcePoint" />
            <mxPoint x="2033" y="-10" as="targetPoint" />
          </mxGeometry>
        </mxCell>
        <mxCell id="37GIN9sQ5EDTgkj8eyPC-110" value="&lt;font style=&quot;font-size: 13px;&quot;&gt;Manufacturer&lt;br&gt;Name&lt;br&gt;&lt;/font&gt;" style="ellipse;whiteSpace=wrap;html=1;align=center;" vertex="1" parent="1">
          <mxGeometry x="2080" y="-69" width="110" height="49" as="geometry" />
        </mxCell>
        <mxCell id="37GIN9sQ5EDTgkj8eyPC-111" style="rounded=0;orthogonalLoop=1;jettySize=auto;html=1;endArrow=none;endFill=0;entryX=0.5;entryY=1;entryDx=0;entryDy=0;" edge="1" parent="1" target="37GIN9sQ5EDTgkj8eyPC-24">
          <mxGeometry relative="1" as="geometry">
            <mxPoint x="1675" y="290" as="sourcePoint" />
            <mxPoint x="1660" y="310" as="targetPoint" />
          </mxGeometry>
        </mxCell>
        <mxCell id="37GIN9sQ5EDTgkj8eyPC-112" value="&lt;font style=&quot;font-size: 13px;&quot;&gt;PayloadID&lt;/font&gt;" style="ellipse;whiteSpace=wrap;html=1;align=center;fontStyle=4;" vertex="1" parent="1">
          <mxGeometry x="1625" y="290" width="100" height="40" as="geometry" />
        </mxCell>
      </root>
    </mxGraphModel>
  </diagram>
</mxfile>
